PathFileType	4	(X/Y/Z)	/Users/itak/Documents/Research/Walk-IL/dataset/trc/00141_00007.trc
DataRate	CameraRate	NumFrames	NumMarkers	Units	OrigDataRate	OrigDataStartFrame	OrigNumFrames
100.000000	100.000000	4	53	mm	100.000000	374	599
Frame#	Time	RPSI			LPSI			L3			STRN			T10			C7			CLAV			RBAK			LBAK			LSHO			LUPA			LAEL			LAOL			LWTS			LWPS			LFRA			LIFD			LHPS			LHTS			RSHO			RUPA			RAEL			RAOL			RWTS			RWPS			RFRA			RIFD			RHTS			RHPS			RBHD			LFHD			RFHD			LBHD			LHIP			RHIP			RASI			LASI			LKNE			LTHI			LANK			LTIP			LTOE			LMT1			LMT5			LHEE			RKNE			RTHI			RANK			RTIP			RTOE			RMT1			RMT5			RHEE			
		X1	Y1	Z1	X2	Y2	Z2	X3	Y3	Z3	X4	Y4	Z4	X5	Y5	Z5	X6	Y6	Z6	X7	Y7	Z7	X8	Y8	Z8	X9	Y9	Z9	X10	Y10	Z10	X11	Y11	Z11	X12	Y12	Z12	X13	Y13	Z13	X14	Y14	Z14	X15	Y15	Z15	X16	Y16	Z16	X17	Y17	Z17	X18	Y18	Z18	X19	Y19	Z19	X20	Y20	Z20	X21	Y21	Z21	X22	Y22	Z22	X23	Y23	Z23	X24	Y24	Z24	X25	Y25	Z25	X26	Y26	Z26	X27	Y27	Z27	X28	Y28	Z28	X29	Y29	Z29	X30	Y30	Z30	X31	Y31	Z31	X32	Y32	Z32	X33	Y33	Z33	X34	Y34	Z34	X35	Y35	Z35	X36	Y36	Z36	X37	Y37	Z37	X38	Y38	Z38	X39	Y39	Z39	X40	Y40	Z40	X41	Y41	Z41	X42	Y42	Z42	X43	Y43	Z43	X44	Y44	Z44	X45	Y45	Z45	X46	Y46	Z46	X47	Y47	Z47	X48	Y48	Z48	X49	Y49	Z49	X50	Y50	Z50	X51	Y51	Z51	X52	Y52	Z52	X53	Y53	Z53	

375	3.74	420.6838073730469	1120.382446289062	918.177001953125	320.4355163574219	1116.777954101562	831.6036987304688	366.3007202148438	1158.495971679688	879.8753051757812	519.1223754882812	1350.098388671875	701.6296997070312	359.5848693847656	1313.174682617188	896.0460815429688	369.9773864746094	1602.72412109375	842.7604370117188	490.5066223144531	1486.272827148438	714.4500122070312	405.0265502929688	1427.329711914062	953.1259765625	286.2384643554688	1578.032958984375	785.3465576171875	286.5757446289062	1554.742431640625	676.5338134765625	212.001220703125	1424.924560546875	663.8912963867188	181.8737182617188	1209.281372070312	668.3857421875	189.0847625732422	1206.715698242188	757.0712890625	250.0505828857422	938.3040161132812	646.0353393554688	178.4255218505859	926.1246337890625	698.6332397460938	176.5043182373047	1091.609375	667.3072509765625	251.5291595458984	743.6001586914062	667.9685668945312	188.3831329345703	847.22802734375	685.2064208984375	240.7890777587891	848.4695434570312	640.7493896484375	544.2005615234375	1593.5380859375	912.26220703125	589.266845703125	1526.106811523438	967.7744140625	660.5407104492188	1240.008666992188	995.2903442382812	574.9391479492188	1220.9072265625	950.277587890625	782.6478881835938	1034.16943359375	845.1557006835938	774.3435668945312	1006.025329589844	922.3124389648438	702.7977905273438	1174.985107421875	978.375	841.1220703125	854.3302612304688	793.8787231445312	833.097900390625	941.0323486328125	813.7789306640625	824.0455322265625	921.1661376953125	883.879638671875	459.7815856933594	1777.049560546875	844.4602661132812	408.4925537109375	1824.287841796875	635.1818237304688	522.5859375	1848.30078125	691.8732299804688	338.4650573730469	1757.147338867188	791.0205078125	310.6435241699219	1028.40869140625	683.0677490234375	595.2611083984375	1029.146240234375	912.8067016601562	614.5296020507812	1096.557250976562	815.9835205078125	416.1484375	1094.240966796875	641.2901000976562	488.6000671386719	564.9940185546875	549.7757568359375	404.7569580078125	690.9829711914062	592.1043090820312	467.1112976074219	51.12367248535156	649.223876953125	434.7279663085938	304.5345764160156	623.0809936523438	610.5795288085938	76.69162750244141	472.5851440429688	609.9859008789062	67.61270141601562	554.5479125976562	498.8433532714844	58.08518981933594	529.6294555664062	494.0911560058594	50.30706787109375	738.1334228515625	549.6085815429688	534.5214233398438	915.3223266601562	597.0706176757812	813.2916259765625	900.5807495117188	427.4478759765625	34.3603630065918	1012.144226074219	530.488525390625	402.7560119628906	950.0549926757812	553.2129516601562	42.78302383422852	805.9373168945312	481.6647644042969	37.73896789550781	823.8123168945312	539.0944213867188	40.26617431640625	934.0095825195312	352.2431030273438	36.64891052246094	1018.243103027344	
376	3.75	426.3340454101562	1119.544677734375	912.7161254882812	325.6770324707031	1115.92041015625	826.5147705078125	372.1096496582031	1157.662719726562	874.596435546875	523.737548828125	1348.876831054688	695.7171630859375	365.2938232421875	1312.339965820312	891.1143188476562	375.5013122558594	1601.839721679688	837.5073852539062	495.18798828125	1485.051147460938	708.5333862304688	411.1330261230469	1426.4375	947.874755859375	291.4185180664062	1577.059204101562	780.5598754882812	290.9640502929688	1553.501220703125	671.824462890625	216.29833984375	1423.6025390625	660.3079833984375	186.0428314208984	1208.064086914062	666.2728881835938	194.6050415039062	1205.770263671875	754.78173828125	253.3593902587891	936.8433227539062	644.1655883789062	182.446044921875	925.050537109375	697.9404907226562	180.4304351806641	1090.408935546875	665.8169555664062	254.7789611816406	742.1885986328125	667.2221069335938	192.1562347412109	846.02734375	684.888671875	243.7722625732422	846.9466552734375	639.5648803710938	550.1724243164062	1592.530029296875	905.8916625976562	595.6256103515625	1525.078125	961.0542602539062	667.8568115234375	1239.001953125	987.2736206054688	581.9860229492188	1219.803100585938	942.8912353515625	789.3873901367188	1034.498901367188	834.8018188476562	781.98876953125	1005.855041503906	911.8756713867188	710.2289428710938	1174.188232421875	969.6251220703125	848.1097412109375	855.3300170898438	781.6380615234375	839.97900390625	941.8107299804688	802.3683471679688	831.7203369140625	921.46533203125	872.4495239257812	465.3034362792969	1775.94482421875	838.5147705078125	412.578857421875	1823.130493164062	629.560791015625	527.069580078125	1847.246459960938	685.4019165039062	343.618896484375	1756.012817382812	785.8961791992188	315.0518493652344	1027.435791015625	678.076416015625	600.604248046875	1027.876708984375	906.7667236328125	619.4837646484375	1095.19921875	809.848388671875	420.5790405273438	1093.105834960938	635.7472534179688	490.262939453125	563.559326171875	545.4910278320312	406.4898376464844	688.9373779296875	588.1968383789062	484.975830078125	47.55364227294922	628.9274291992188	444.2607421875	300.6639709472656	611.7400512695312	623.8230590820312	82.43323516845703	450.0845031738281	625.2687377929688	70.87936401367188	531.7359619140625	513.8196411132812	59.17204284667969	508.9565124511719	513.6116333007812	44.7736701965332	717.0686645507812	552.2341918945312	533.5792236328125	911.875244140625	601.1422729492188	811.9981689453125	895.4133911132812	427.3307800292969	34.67348480224609	1011.914367675781	532.3446655273438	402.072021484375	947.443115234375	553.187255859375	42.44511795043945	805.7630004882812	481.6505432128906	37.57957458496094	823.7214965820312	539.079833984375	40.29341125488281	933.9371337890625	352.1006774902344	37.01076889038086	1018.076965332031	
377	3.76	431.9159240722656	1118.638549804688	907.0924682617188	330.8357849121094	1114.993896484375	821.2147216796875	377.7633361816406	1156.747802734375	869.1060180664062	528.327392578125	1347.612915039062	689.71533203125	371.0089111328125	1311.356079101562	886.0133666992188	380.9494018554688	1600.839965820312	832.119384765625	499.83251953125	1483.786010742188	702.526611328125	417.1434020996094	1425.47119140625	942.5030517578125	296.5447082519531	1575.983764648438	775.6294555664062	295.3261413574219	1552.186401367188	666.966796875	220.6097869873047	1422.196899414062	656.548095703125	190.30224609375	1206.753173828125	663.9751586914062	200.1140747070312	1204.782836914062	752.276611328125	256.7834167480469	935.2632446289062	642.2860107421875	186.6597442626953	923.8911743164062	697.0816040039062	184.4960174560547	1089.1220703125	664.1451416015625	258.2875671386719	740.721923828125	666.306640625	196.1349029541016	844.7576293945312	684.3814086914062	246.9793853759766	845.3634643554688	638.2117309570312	556.0262451171875	1591.466674804688	899.4549560546875	601.8521118164062	1523.998413085938	954.2776489257812	674.91650390625	1237.912109375	979.1775512695312	588.7997436523438	1218.664428710938	935.4234008789062	795.7705078125	1034.64404296875	824.4618530273438	789.2421264648438	1005.532775878906	901.449951171875	717.36669921875	1173.288208007812	960.8197631835938	854.62548828125	856.080322265625	769.5358276367188	846.4387817382812	942.3602905273438	791.0119018554688	838.9231567382812	921.5682983398438	861.0728149414062	470.7333679199219	1774.774169921875	832.4984741210938	416.6330261230469	1821.94970703125	623.8768920898438	531.4899291992188	1846.13330078125	678.956787109375	348.6885375976562	1754.822998046875	780.6616821289062	319.5122680664062	1026.397338867188	672.8560180664062	605.8765869140625	1026.561157226562	900.645751953125	624.404052734375	1093.801025390625	803.648681640625	425.05908203125	1091.901489257812	630.0454711914062	491.8018798828125	561.90234375	541.4103393554688	408.1802673339844	686.7222290039062	584.4278564453125	502.0283813476562	44.77973937988281	608.6084594726562	453.3362426757812	297.1243591308594	600.357666015625	636.729248046875	88.37832641601562	428.3505554199219	639.8997802734375	74.55127716064453	509.6115112304688	528.3115234375	60.72352981567383	488.5083618164062	532.0731811523438	40.18254089355469	695.9835205078125	554.8982543945312	532.6144409179688	908.2971801757812	605.1868896484375	810.695556640625	890.146240234375	427.2166748046875	35.02519607543945	1011.671264648438	534.2374267578125	401.3764343261719	944.7316284179688	553.1785278320312	42.14256286621094	805.5687866210938	481.6563720703125	37.44391250610352	823.6163330078125	539.06396484375	40.32102203369141	933.85693359375	351.9566955566406	37.45132827758789	1017.915466308594	
378	3.77	437.4235534667969	1117.673217773438	901.30126953125	335.8636779785156	1114.019165039062	815.6889038085938	383.2649841308594	1155.754516601562	863.4008178710938	532.90283203125	1346.312133789062	683.6181640625	376.7490844726562	1310.200927734375	880.6902465820312	386.3150024414062	1599.733642578125	826.591552734375	504.43896484375	1482.479614257812	696.4261474609375	423.0541687011719	1424.43115234375	937.0038452148438	301.5968627929688	1574.816650390625	770.5763549804688	299.6549072265625	1550.802368164062	661.9594116210938	224.9314727783203	1420.708129882812	652.6117553710938	194.6403350830078	1205.352294921875	661.48388671875	205.6055603027344	1203.753784179688	749.5667114257812	260.3247375488281	933.5867919921875	640.33056640625	191.0636444091797	922.6509399414062	696.037841796875	188.6857604980469	1087.746948242188	662.2767944335938	262.0522766113281	739.2062377929688	665.1826171875	200.3055725097656	843.4210205078125	683.6507568359375	250.4107360839844	843.72607421875	636.6638793945312	561.7689819335938	1590.350219726562	892.9468994140625	607.958251953125	1522.866333007812	947.4368286132812	681.7176513671875	1236.737060546875	971.0140380859375	595.3740234375	1217.490844726562	927.87890625	801.800537109375	1034.605346679688	814.1470947265625	796.1092529296875	1005.057312011719	891.0486450195312	724.2105712890625	1172.283325195312	951.9723510742188	860.686767578125	856.5816040039062	757.5823974609375	852.4846801757812	942.6825561523438	779.7185668945312	845.6600952148438	921.4729614257812	849.7606201171875	476.0625915527344	1773.541625976562	826.4095458984375	420.6537475585938	1820.748901367188	618.1264038085938	535.84326171875	1844.966918945312	672.5386962890625	353.6697692871094	1753.579711914062	775.3177490234375	324.0282897949219	1025.297607421875	667.3949584960938	611.0728759765625	1025.205810546875	894.4620361328125	629.31591796875	1092.372680664062	797.3825073242188	429.5981140136719	1090.636108398438	624.1841430664062	493.2752685546875	560.066650390625	537.4713745117188	409.8782348632812	684.3915405273438	580.7279663085938	518.1306762695312	42.80672073364258	588.3978881835938	461.9075927734375	293.9620666503906	588.9889526367188	649.3839111328125	94.40565490722656	407.5370788574219	653.8954467773438	78.50685119628906	488.3434448242188	542.3102416992188	62.69790649414062	468.4012756347656	549.2969360351562	36.56000137329102	675.0897216796875	557.5971069335938	531.6290893554688	904.5823974609375	609.2123413085938	809.3903198242188	884.7905883789062	427.0976257324219	35.42779159545898	1011.412475585938	536.1655883789062	400.6790771484375	941.9130859375	553.1965942382812	41.88603973388672	805.3564453125	481.6761779785156	37.32175064086914	823.4961547851562	539.0453491210938	40.35223007202148	933.7655639648438	351.8149719238281	37.99786376953125	1017.756530761719	
